<?xml version="1.0" encoding="UTF-8"?>
<svg width="767px" height="542px" viewBox="0 0 767 542" version="1.1" xmlns="http://www.w3.org/2000/svg" xmlns:xlink="http://www.w3.org/1999/xlink">
    <!-- Generator: sketchtool 64 (101010) - https://sketch.com -->
    <title>1ED4B666-3AD3-4701-900C-9EB941E3F041@1x</title>
    <desc>Created with sketchtool.</desc>
    <defs>
        <path d="M1.04318232,1.04318232 C1.34149949,0.744865153 1.82516718,0.744865153 2.12348435,1.04318232 L2.12348435,1.04318232 L6.16644444,5.08544444 L10.209849,1.04318232 C10.4810464,0.771984895 10.9054261,0.747330584 11.2044748,0.969219386 L11.290151,1.04318232 C11.5884682,1.34149949 11.5884682,1.82516718 11.290151,2.12348435 L11.290151,2.12348435 L7.24644444,6.16644444 L11.290151,10.209849 C11.5613484,10.4810464 11.5860027,10.9054261 11.3641139,11.2044748 L11.290151,11.290151 C10.9918338,11.5884682 10.5081662,11.5884682 10.209849,11.290151 L10.209849,11.290151 L6.16644444,7.24644444 L2.12348435,11.290151 C1.85228692,11.5613484 1.42790725,11.5860027 1.1288585,11.3641139 L1.04318232,11.290151 C0.744865153,10.9918338 0.744865153,10.5081662 1.04318232,10.209849 L1.04318232,10.209849 L5.08544444,6.16644444 L1.04318232,2.12348435 C0.771984895,1.85228692 0.747330584,1.42790725 0.969219386,1.1288585 Z" id="path-1"></path>
        <path d="M2.06792879,4.80707121 C1.76961162,4.50875404 1.28594393,4.50875404 0.987626764,4.80707121 C0.689309597,5.10538838 0.689309597,5.58905607 0.987626764,5.88737324 L4.80707121,9.70681768 C5.10538838,10.0051348 5.58905607,10.0051348 5.88737324,9.70681768 L14.290151,1.3040399 C14.5884682,1.00572273 14.5884682,0.522055043 14.290151,0.223737875 C13.9918338,-0.0745792918 13.5081662,-0.0745792918 13.209849,0.223737875 L5.34722222,8.08636464 L2.06792879,4.80707121 Z" id="path-3"></path>
        <path d="M1.04318232,1.04318232 C1.34149949,0.744865153 1.82516718,0.744865153 2.12348435,1.04318232 L2.12348435,1.04318232 L6.16644444,5.08544444 L10.209849,1.04318232 C10.4810464,0.771984895 10.9054261,0.747330584 11.2044748,0.969219386 L11.290151,1.04318232 C11.5884682,1.34149949 11.5884682,1.82516718 11.290151,2.12348435 L11.290151,2.12348435 L7.24644444,6.16644444 L11.290151,10.209849 C11.5613484,10.4810464 11.5860027,10.9054261 11.3641139,11.2044748 L11.290151,11.290151 C10.9918338,11.5884682 10.5081662,11.5884682 10.209849,11.290151 L10.209849,11.290151 L6.16644444,7.24644444 L2.12348435,11.290151 C1.85228692,11.5613484 1.42790725,11.5860027 1.1288585,11.3641139 L1.04318232,11.290151 C0.744865153,10.9918338 0.744865153,10.5081662 1.04318232,10.209849 L1.04318232,10.209849 L5.08544444,6.16644444 L1.04318232,2.12348435 C0.771984895,1.85228692 0.747330584,1.42790725 0.969219386,1.1288585 Z" id="path-5"></path>
        <path d="M2.06792879,4.80707121 C1.76961162,4.50875404 1.28594393,4.50875404 0.987626764,4.80707121 C0.689309597,5.10538838 0.689309597,5.58905607 0.987626764,5.88737324 L4.80707121,9.70681768 C5.10538838,10.0051348 5.58905607,10.0051348 5.88737324,9.70681768 L14.290151,1.3040399 C14.5884682,1.00572273 14.5884682,0.522055043 14.290151,0.223737875 C13.9918338,-0.0745792918 13.5081662,-0.0745792918 13.209849,0.223737875 L5.34722222,8.08636464 L2.06792879,4.80707121 Z" id="path-7"></path>
        <path d="M1.04318232,1.04318232 C1.34149949,0.744865153 1.82516718,0.744865153 2.12348435,1.04318232 L2.12348435,1.04318232 L6.16644444,5.08544444 L10.209849,1.04318232 C10.4810464,0.771984895 10.9054261,0.747330584 11.2044748,0.969219386 L11.290151,1.04318232 C11.5884682,1.34149949 11.5884682,1.82516718 11.290151,2.12348435 L11.290151,2.12348435 L7.24644444,6.16644444 L11.290151,10.209849 C11.5613484,10.4810464 11.5860027,10.9054261 11.3641139,11.2044748 L11.290151,11.290151 C10.9918338,11.5884682 10.5081662,11.5884682 10.209849,11.290151 L10.209849,11.290151 L6.16644444,7.24644444 L2.12348435,11.290151 C1.85228692,11.5613484 1.42790725,11.5860027 1.1288585,11.3641139 L1.04318232,11.290151 C0.744865153,10.9918338 0.744865153,10.5081662 1.04318232,10.209849 L1.04318232,10.209849 L5.08544444,6.16644444 L1.04318232,2.12348435 C0.771984895,1.85228692 0.747330584,1.42790725 0.969219386,1.1288585 Z" id="path-9"></path>
        <path d="M2.06792879,4.80707121 C1.76961162,4.50875404 1.28594393,4.50875404 0.987626764,4.80707121 C0.689309597,5.10538838 0.689309597,5.58905607 0.987626764,5.88737324 L4.80707121,9.70681768 C5.10538838,10.0051348 5.58905607,10.0051348 5.88737324,9.70681768 L14.290151,1.3040399 C14.5884682,1.00572273 14.5884682,0.522055043 14.290151,0.223737875 C13.9918338,-0.0745792918 13.5081662,-0.0745792918 13.209849,0.223737875 L5.34722222,8.08636464 L2.06792879,4.80707121 Z" id="path-11"></path>
        <path d="M1.04318232,1.04318232 C1.34149949,0.744865153 1.82516718,0.744865153 2.12348435,1.04318232 L2.12348435,1.04318232 L6.16644444,5.08544444 L10.209849,1.04318232 C10.4810464,0.771984895 10.9054261,0.747330584 11.2044748,0.969219386 L11.290151,1.04318232 C11.5884682,1.34149949 11.5884682,1.82516718 11.290151,2.12348435 L11.290151,2.12348435 L7.24644444,6.16644444 L11.290151,10.209849 C11.5613484,10.4810464 11.5860027,10.9054261 11.3641139,11.2044748 L11.290151,11.290151 C10.9918338,11.5884682 10.5081662,11.5884682 10.209849,11.290151 L10.209849,11.290151 L6.16644444,7.24644444 L2.12348435,11.290151 C1.85228692,11.5613484 1.42790725,11.5860027 1.1288585,11.3641139 L1.04318232,11.290151 C0.744865153,10.9918338 0.744865153,10.5081662 1.04318232,10.209849 L1.04318232,10.209849 L5.08544444,6.16644444 L1.04318232,2.12348435 C0.771984895,1.85228692 0.747330584,1.42790725 0.969219386,1.1288585 Z" id="path-13"></path>
        <path d="M2.06792879,4.80707121 C1.76961162,4.50875404 1.28594393,4.50875404 0.987626764,4.80707121 C0.689309597,5.10538838 0.689309597,5.58905607 0.987626764,5.88737324 L4.80707121,9.70681768 C5.10538838,10.0051348 5.58905607,10.0051348 5.88737324,9.70681768 L14.290151,1.3040399 C14.5884682,1.00572273 14.5884682,0.522055043 14.290151,0.223737875 C13.9918338,-0.0745792918 13.5081662,-0.0745792918 13.209849,0.223737875 L5.34722222,8.08636464 L2.06792879,4.80707121 Z" id="path-15"></path>
        <path d="M2.06792879,4.80707121 C1.76961162,4.50875404 1.28594393,4.50875404 0.987626764,4.80707121 C0.689309597,5.10538838 0.689309597,5.58905607 0.987626764,5.88737324 L4.80707121,9.70681768 C5.10538838,10.0051348 5.58905607,10.0051348 5.88737324,9.70681768 L14.290151,1.3040399 C14.5884682,1.00572273 14.5884682,0.522055043 14.290151,0.223737875 C13.9918338,-0.0745792918 13.5081662,-0.0745792918 13.209849,0.223737875 L5.34722222,8.08636464 L2.06792879,4.80707121 Z" id="path-17"></path>
        <path d="M2.06792879,4.80707121 C1.76961162,4.50875404 1.28594393,4.50875404 0.987626764,4.80707121 C0.689309597,5.10538838 0.689309597,5.58905607 0.987626764,5.88737324 L4.80707121,9.70681768 C5.10538838,10.0051348 5.58905607,10.0051348 5.88737324,9.70681768 L14.290151,1.3040399 C14.5884682,1.00572273 14.5884682,0.522055043 14.290151,0.223737875 C13.9918338,-0.0745792918 13.5081662,-0.0745792918 13.209849,0.223737875 L5.34722222,8.08636464 L2.06792879,4.80707121 Z" id="path-19"></path>
    </defs>
    <g id="Page-1" stroke="none" stroke-width="1" fill="none" fill-rule="evenodd">
        <g id="Fundraising-COUP---Liquidation-Preference-Page" transform="translate(-335.000000, -1650.000000)">
            <g id="Group-13" transform="translate(335.000000, 1641.000000)">
                <text id="Distribution-of-Proc" font-family="Roboto-Regular, Roboto" font-size="16" font-weight="normal" line-spacing="32" fill="#FFFFFF">
                    <tspan x="272.78125" y="17">Distribution of Proceeds at Exit</tspan>
                </text>
                <rect id="Rectangle-9" fill="#ECEBE6" opacity="0.100000001" x="70.2777778" y="152.25" width="3.05555556" height="129.861111"></rect>
                <rect id="Rectangle-9-Copy-3" fill="#ECEBE6" opacity="0.100000001" x="70.2777778" y="407.388889" width="3.05555556" height="116.111111"></rect>
                <rect id="Rectangle-9-Copy" fill="#ECEBE6" opacity="0.100000001" x="100.833333" y="283.638889" width="3.05555556" height="129.861111"></rect>
                <rect id="Rectangle-9-Copy-2" fill="#ECEBE6" opacity="0.100000001" x="41.25" y="283.638889" width="3.05555556" height="45.8333333"></rect>
                <rect id="Rectangle-2" fill="#131416" x="25.9722222" y="56" width="96.25" height="96.25"></rect>
                <rect id="Rectangle-7-Copy" stroke="#FFFFFF" fill="#181A1C" x="17.3055556" y="299.416667" width="54" height="54"></rect>
                <rect id="Rectangle-7-Copy-4" fill="#131416" x="24.4444444" y="476.138889" width="99.3055556" height="50.4166667"></rect>
                <rect id="Rectangle-7-Copy-2" stroke="#FFFFFF" fill="#181A1C" x="75.3611111" y="299.416667" width="54" height="54"></rect>
                <g id="Group-2" transform="translate(61.111111, 314.194444)">
                    <rect id="Rectangle-4-Copy" fill="#131416" x="0" y="0" width="24.4444444" height="24.4444444"></rect>
                    <text id="&lt;" font-family="Helvetica" font-size="12.2222222" font-weight="normal" fill="#FFFFFF">
                        <tspan x="9" y="15.3333333">&lt;</tspan>
                    </text>
                </g>
                <text id="$-3m" font-family="Roboto-Regular, Roboto" font-size="21.3888889" font-weight="normal" fill="#FFFFFF">
                    <tspan x="50.0503879" y="109.611111">$ 3m</tspan>
                </text>
                <text id="Pro-rata" font-family="Roboto-Regular, Roboto" font-size="12.2222222" font-weight="normal" fill="#8A8B91">
                    <tspan x="16.8055556" y="267.138889">Pro-rata</tspan>
                </text>
                <text id="25%-×-3m" font-family="Roboto-Regular, Roboto" font-size="12.2222222" font-weight="normal" fill="#8A8B91">
                    <tspan x="39.9444444" y="379.527778">25% × 3m</tspan>
                </text>
                <text id="$-3m---3m" font-family="Roboto-Regular, Roboto" font-size="12.2222222" font-weight="normal" fill="#8A8B91">
                    <tspan x="41.25" y="548.25">$ 3m - 3m</tspan>
                </text>
                <text id="LiqPref" font-family="Roboto-Regular, Roboto" font-size="12.2222222" font-weight="normal" fill="#8A8B91">
                    <tspan x="85.5555556" y="267.138889">LiqPref</tspan>
                </text>
                <text id="0.8-m" font-family="Roboto-Regular, Roboto" font-size="15.2777778" font-weight="normal" line-spacing="15.2777778" fill="#FFFFFF">
                    <tspan x="31.0138889" y="326.666667">0.8</tspan>
                    <tspan x="34.9862603" y="341.944444">m</tspan>
                </text>
                <text id="$-0" font-family="Roboto-Regular, Roboto" font-size="21.3888889" font-weight="normal" line-spacing="15.2777778" fill="#FFFFFF">
                    <tspan x="59.8611111" y="516">$ 0</tspan>
                </text>
                <text id="3-m" font-family="Roboto-Regular, Roboto" font-size="15.2777778" font-weight="normal" line-spacing="15.2777778" fill="#FFFFFF">
                    <tspan x="100.028741" y="326.666667">3</tspan>
                    <tspan x="97.6527778" y="341.944444">m</tspan>
                </text>
                <rect id="Rectangle-10" fill="#ECEBE6" opacity="0.100000001" x="41.25" y="280.583333" width="62.6388889" height="3.05555556"></rect>
                <g id="x" transform="translate(35.083333, 240.805556)">
                    <mask id="mask-2" fill="white">
                        <use xlink:href="#path-1"></use>
                    </mask>
                    <use id="Combined-Shape" fill="#000000" fill-rule="nonzero" xlink:href="#path-1"></use>
                    <g id="COLOR/-black" mask="url(#mask-2)" fill="#FFFFFF">
                        <g transform="translate(-3.000000, -3.000000)" id="Rectangle">
                            <rect x="0" y="0" width="18.3333333" height="18.3333333"></rect>
                        </g>
                    </g>
                </g>
                <g id="check" transform="translate(94.722222, 242.388889)">
                    <mask id="mask-4" fill="white">
                        <use xlink:href="#path-3"></use>
                    </mask>
                    <use id="Shape" fill="#000000" fill-rule="nonzero" xlink:href="#path-3"></use>
                    <g id="COLOR/-black" mask="url(#mask-4)" fill="#FFFFFF">
                        <g transform="translate(-1.527778, -4.583333)" id="Rectangle">
                            <rect x="0" y="0" width="18.3333333" height="18.3333333"></rect>
                        </g>
                    </g>
                </g>
                <rect id="Rectangle-2-Copy" fill="#131416" x="180.277778" y="56" width="96.25" height="96.25"></rect>
                <rect id="Rectangle-9" fill="#ECEBE6" opacity="0.100000001" x="224.583333" y="152.25" width="3.05555556" height="129.861111"></rect>
                <rect id="Rectangle-9-Copy-4" fill="#ECEBE6" opacity="0.100000001" x="224.583333" y="407.388889" width="3.05555556" height="116.111111"></rect>
                <rect id="Rectangle-9-Copy" fill="#ECEBE6" opacity="0.100000001" x="255.138889" y="283.638889" width="3.05555556" height="129.861111"></rect>
                <rect id="Rectangle-9-Copy-2" fill="#ECEBE6" opacity="0.100000001" x="195.555556" y="283.638889" width="3.05555556" height="45.8333333"></rect>
                <rect id="Rectangle-7-Copy" stroke="#FFFFFF" fill="#181A1C" x="171.611111" y="299.416667" width="54" height="54"></rect>
                <rect id="Rectangle-7-Copy-4" fill="#131416" x="178.75" y="476.138889" width="99.3055556" height="50.4166667"></rect>
                <rect id="Rectangle-7-Copy-2" stroke="#FFFFFF" fill="#181A1C" x="229.666667" y="299.416667" width="54" height="54"></rect>
                <g id="Group-2" transform="translate(215.416667, 314.194444)">
                    <rect id="Rectangle-4-Copy" fill="#131416" x="0" y="0" width="24.4444444" height="24.4444444"></rect>
                    <text id="&lt;" font-family="Helvetica" font-size="12.2222222" font-weight="normal" fill="#FFFFFF">
                        <tspan x="9" y="15.3333333">&lt;</tspan>
                    </text>
                </g>
                <text id="$-5m" font-family="Roboto-Regular, Roboto" font-size="21.3888889" font-weight="normal" fill="#FFFFFF">
                    <tspan x="204.355943" y="109.611111">$ 5m</tspan>
                </text>
                <text id="Pro-rata" font-family="Roboto-Regular, Roboto" font-size="12.2222222" font-weight="normal" fill="#8A8B91">
                    <tspan x="171.111111" y="267.138889">Pro-rata</tspan>
                </text>
                <text id="25%-×-5m" font-family="Roboto-Regular, Roboto" font-size="12.2222222" font-weight="normal" fill="#8A8B91">
                    <tspan x="193.944444" y="379.527778">25% × 5m</tspan>
                </text>
                <text id="$-5m---5m" font-family="Roboto-Regular, Roboto" font-size="12.2222222" font-weight="normal" fill="#8A8B91">
                    <tspan x="195.555556" y="548.25">$ 5m - 5m</tspan>
                </text>
                <text id="LiqPref" font-family="Roboto-Regular, Roboto" font-size="12.2222222" font-weight="normal" fill="#8A8B91">
                    <tspan x="239.861111" y="267.138889">LiqPref</tspan>
                </text>
                <text id="1.3-m" font-family="Roboto-Regular, Roboto" font-size="15.2777778" font-weight="normal" line-spacing="15.2777778" fill="#FFFFFF">
                    <tspan x="185.319444" y="326.666667">1.3</tspan>
                    <tspan x="189.288086" y="341.944444">m</tspan>
                </text>
                <text id="$-0" font-family="Roboto-Regular, Roboto" font-size="21.3888889" font-weight="normal" line-spacing="15.2777778" fill="#FFFFFF">
                    <tspan x="214.166667" y="516">$ 0</tspan>
                </text>
                <text id="5-m" font-family="Roboto-Regular, Roboto" font-size="15.2777778" font-weight="normal" line-spacing="15.2777778" fill="#FFFFFF">
                    <tspan x="254.334296" y="326.666667">5</tspan>
                    <tspan x="251.958333" y="341.944444">m</tspan>
                </text>
                <rect id="Rectangle-10" fill="#ECEBE6" opacity="0.100000001" x="195.555556" y="280.583333" width="62.6388889" height="3.05555556"></rect>
                <g id="x" transform="translate(189.388889, 240.805556)">
                    <mask id="mask-6" fill="white">
                        <use xlink:href="#path-5"></use>
                    </mask>
                    <use id="Combined-Shape" fill="#000000" fill-rule="nonzero" xlink:href="#path-5"></use>
                    <g id="COLOR/-black" mask="url(#mask-6)" fill="#FFFFFF">
                        <g transform="translate(-3.000000, -3.000000)" id="Rectangle">
                            <rect x="0" y="0" width="18.3333333" height="18.3333333"></rect>
                        </g>
                    </g>
                </g>
                <g id="check" transform="translate(249.027778, 242.388889)">
                    <mask id="mask-8" fill="white">
                        <use xlink:href="#path-7"></use>
                    </mask>
                    <use id="Shape" fill="#000000" fill-rule="nonzero" xlink:href="#path-7"></use>
                    <g id="COLOR/-black" mask="url(#mask-8)" fill="#FFFFFF">
                        <g transform="translate(-1.527778, -4.583333)" id="Rectangle">
                            <rect x="0" y="0" width="18.3333333" height="18.3333333"></rect>
                        </g>
                    </g>
                </g>
                <rect id="Rectangle-2-Copy-2" fill="#131416" x="336.111111" y="56" width="96.25" height="96.25"></rect>
                <rect id="Rectangle-9" fill="#ECEBE6" opacity="0.100000001" x="380.416667" y="152.25" width="3.05555556" height="129.861111"></rect>
                <rect id="Rectangle-9-Copy-5" fill="#ECEBE6" opacity="0.100000001" x="380.416667" y="407.388889" width="3.05555556" height="116.111111"></rect>
                <rect id="Rectangle-9-Copy" fill="#ECEBE6" opacity="0.100000001" x="410.972222" y="283.638889" width="3.05555556" height="129.861111"></rect>
                <rect id="Rectangle-9-Copy-2" fill="#ECEBE6" opacity="0.100000001" x="351.388889" y="283.638889" width="3.05555556" height="45.8333333"></rect>
                <rect id="Rectangle-7-Copy" stroke="#FFFFFF" fill="#181A1C" x="327.444444" y="299.416667" width="54" height="54"></rect>
                <rect id="Rectangle-7-Copy-4" fill="#131416" x="334.583333" y="476.138889" width="99.3055556" height="50.4166667"></rect>
                <rect id="Rectangle-7-Copy-2" stroke="#FFFFFF" fill="#181A1C" x="385.5" y="299.416667" width="54" height="54"></rect>
                <g id="Group-2" transform="translate(371.250000, 314.194444)">
                    <rect id="Rectangle-4-Copy" fill="#131416" x="0" y="0" width="24.4444444" height="24.4444444"></rect>
                    <text id="&lt;" font-family="Helvetica" font-size="12.2222222" font-weight="normal" fill="#FFFFFF">
                        <tspan x="9" y="15.3333333">&lt;</tspan>
                    </text>
                </g>
                <text id="$-10m" font-family="Roboto-Regular, Roboto" font-size="21.3888889" font-weight="normal" fill="#FFFFFF">
                    <tspan x="354.163208" y="109.611111">$ 10m</tspan>
                </text>
                <text id="Pro-rata" font-family="Roboto-Regular, Roboto" font-size="12.2222222" font-weight="normal" fill="#8A8B91">
                    <tspan x="326.944444" y="267.138889">Pro-rata</tspan>
                </text>
                <text id="25%-×-10m" font-family="Roboto-Regular, Roboto" font-size="12.2222222" font-weight="normal" fill="#8A8B91">
                    <tspan x="340.944444" y="379.527778">25% × 10m</tspan>
                </text>
                <text id="$-10m---5m" font-family="Roboto-Regular, Roboto" font-size="12.2222222" font-weight="normal" fill="#8A8B91">
                    <tspan x="351.388889" y="548.25">$ 10m - 5m</tspan>
                </text>
                <text id="LiqPref" font-family="Roboto-Regular, Roboto" font-size="12.2222222" font-weight="normal" fill="#8A8B91">
                    <tspan x="395.694444" y="267.138889">LiqPref</tspan>
                </text>
                <text id="2.5-m" font-family="Roboto-Regular, Roboto" font-size="15.2777778" font-weight="normal" line-spacing="15.2777778" fill="#FFFFFF">
                    <tspan x="341.152778" y="326.666667">2.5</tspan>
                    <tspan x="345.121419" y="341.944444">m</tspan>
                </text>
                <text id="$-5m" font-family="Roboto-Regular, Roboto" font-size="21.3888889" font-weight="normal" line-spacing="15.2777778" fill="#FFFFFF">
                    <tspan x="360.5" y="516">$ 5m</tspan>
                </text>
                <text id="5-m" font-family="Roboto-Regular, Roboto" font-size="15.2777778" font-weight="normal" line-spacing="15.2777778" fill="#FFFFFF">
                    <tspan x="410.16763" y="326.666667">5</tspan>
                    <tspan x="407.791667" y="341.944444">m</tspan>
                </text>
                <rect id="Rectangle-10" fill="#ECEBE6" opacity="0.100000001" x="351.388889" y="280.583333" width="62.6388889" height="3.05555556"></rect>
                <g id="x" transform="translate(345.222222, 240.805556)">
                    <mask id="mask-10" fill="white">
                        <use xlink:href="#path-9"></use>
                    </mask>
                    <use id="Combined-Shape" fill="#000000" fill-rule="nonzero" xlink:href="#path-9"></use>
                    <g id="COLOR/-black" mask="url(#mask-10)" fill="#FFFFFF">
                        <g transform="translate(-3.000000, -3.000000)" id="Rectangle">
                            <rect x="0" y="0" width="18.3333333" height="18.3333333"></rect>
                        </g>
                    </g>
                </g>
                <g id="check" transform="translate(404.861111, 242.388889)">
                    <mask id="mask-12" fill="white">
                        <use xlink:href="#path-11"></use>
                    </mask>
                    <use id="Shape" fill="#000000" fill-rule="nonzero" xlink:href="#path-11"></use>
                    <g id="COLOR/-black" mask="url(#mask-12)" fill="#FFFFFF">
                        <g transform="translate(-1.527778, -4.583333)" id="Rectangle">
                            <rect x="0" y="0" width="18.3333333" height="18.3333333"></rect>
                        </g>
                    </g>
                </g>
                <rect id="Rectangle-2-Copy-4" fill="#131416" x="644.722222" y="56" width="96.25" height="96.25"></rect>
                <rect id="Rectangle-9" fill="#ECEBE6" opacity="0.100000001" x="689.027778" y="152.25" width="3.05555556" height="129.861111"></rect>
                <rect id="Rectangle-9-Copy-6" fill="#ECEBE6" opacity="0.100000001" x="689.027778" y="407.388889" width="3.05555556" height="116.111111"></rect>
                <rect id="Rectangle-9-Copy-2" fill="#ECEBE6" opacity="0.100000001" x="719.583333" y="283.638889" width="3.05555556" height="45.8333333"></rect>
                <rect id="Rectangle-9-Copy" fill="#ECEBE6" opacity="0.100000001" x="660" y="283.638889" width="3.05555556" height="129.861111"></rect>
                <rect id="Rectangle-7-Copy" stroke="#FFFFFF" fill="#181A1C" x="636.055556" y="299.416667" width="54" height="54"></rect>
                <rect id="Rectangle-7-Copy-4" fill="#131416" x="643.194444" y="476.138889" width="99.3055556" height="50.4166667"></rect>
                <rect id="Rectangle-7-Copy-2" stroke="#FFFFFF" fill="#181A1C" x="694.111111" y="299.416667" width="54" height="54"></rect>
                <g id="Group-2" transform="translate(679.861111, 314.194444)">
                    <rect id="Rectangle-4-Copy" fill="#131416" x="0" y="0" width="24.4444444" height="24.4444444"></rect>
                    <text id="&gt;" font-family="Helvetica" font-size="12.2222222" font-weight="normal" fill="#FFFFFF">
                        <tspan x="9" y="15.3333333">&gt;</tspan>
                    </text>
                </g>
                <text id="$-24m" font-family="Roboto-Regular, Roboto" font-size="21.3888889" font-weight="normal" fill="#FFFFFF">
                    <tspan x="662.779541" y="109.611111">$ 24m</tspan>
                </text>
                <text id="Pro-rata" font-family="Roboto-Regular, Roboto" font-size="12.2222222" font-weight="normal" fill="#8A8B91">
                    <tspan x="635.555556" y="267.138889">Pro-rata</tspan>
                </text>
                <text id="25%-×-24m" font-family="Roboto-Regular, Roboto" font-size="12.2222222" font-weight="normal" fill="#8A8B91">
                    <tspan x="670.944444" y="379.527778">25% × 24m</tspan>
                </text>
                <text id="75%-x-$-24m" font-family="Roboto-Regular, Roboto" font-size="12.2222222" font-weight="normal" fill="#8A8B91">
                    <tspan x="660" y="548.25">75% x $ 24m</tspan>
                </text>
                <text id="LiqPref" font-family="Roboto-Regular, Roboto" font-size="12.2222222" font-weight="normal" fill="#8A8B91">
                    <tspan x="704.305556" y="267.138889">LiqPref</tspan>
                </text>
                <text id="6-m" font-family="Roboto-Regular, Roboto" font-size="15.2777778" font-weight="normal" line-spacing="15.2777778" fill="#FFFFFF">
                    <tspan x="656.139852" y="326.666667">6</tspan>
                    <tspan x="653.763889" y="341.944444">m</tspan>
                </text>
                <text id="$-18m" font-family="Roboto-Regular, Roboto" font-size="21.3888889" font-weight="normal" line-spacing="15.2777778" fill="#FFFFFF">
                    <tspan x="663.111111" y="516">$ 18m</tspan>
                </text>
                <text id="5-m" font-family="Roboto-Regular, Roboto" font-size="15.2777778" font-weight="normal" line-spacing="15.2777778" fill="#FFFFFF">
                    <tspan x="718.778741" y="326.666667">5</tspan>
                    <tspan x="716.402778" y="341.944444">m</tspan>
                </text>
                <rect id="Rectangle-10" fill="#ECEBE6" opacity="0.100000001" x="660" y="280.583333" width="62.6388889" height="3.05555556"></rect>
                <g id="x" transform="translate(714.944444, 240.805556)">
                    <mask id="mask-14" fill="white">
                        <use xlink:href="#path-13"></use>
                    </mask>
                    <use id="Combined-Shape" fill="#000000" fill-rule="nonzero" xlink:href="#path-13"></use>
                    <g id="COLOR/-black" mask="url(#mask-14)" fill="#FFFFFF">
                        <g transform="translate(-3.000000, -3.000000)" id="Rectangle">
                            <rect x="0" y="0" width="18.3333333" height="18.3333333"></rect>
                        </g>
                    </g>
                </g>
                <g id="check" transform="translate(652.361111, 242.388889)">
                    <mask id="mask-16" fill="white">
                        <use xlink:href="#path-15"></use>
                    </mask>
                    <use id="Shape" fill="#000000" fill-rule="nonzero" xlink:href="#path-15"></use>
                    <g id="COLOR/-black" mask="url(#mask-16)" fill="#FFFFFF">
                        <g transform="translate(-1.527778, -4.583333)" id="Rectangle">
                            <rect x="0" y="0" width="18.3333333" height="18.3333333"></rect>
                        </g>
                    </g>
                </g>
                <rect id="Rectangle-2-Copy-3" fill="#131416" x="490.416667" y="56" width="96.25" height="96.25"></rect>
                <rect id="Rectangle-9" fill="#ECEBE6" opacity="0.100000001" x="534.722222" y="152.25" width="3.05555556" height="129.861111"></rect>
                <rect id="Rectangle-9-Copy-7" fill="#ECEBE6" opacity="0.100000001" x="534.722222" y="407.388889" width="3.05555556" height="116.111111"></rect>
                <rect id="Rectangle-9-Copy" fill="#ECEBE6" opacity="0.100000001" x="565.277778" y="283.638889" width="3.05555556" height="129.861111"></rect>
                <rect id="Rectangle-9-Copy" fill="#ECEBE6" opacity="0.100000001" x="505.694444" y="283.638889" width="3.05555556" height="129.861111"></rect>
                <rect id="Rectangle-7-Copy" stroke="#FFFFFF" fill="#181A1C" x="481.75" y="299.416667" width="54" height="54"></rect>
                <rect id="Rectangle-7-Copy-4" fill="#131416" x="488.888889" y="476.138889" width="99.3055556" height="50.4166667"></rect>
                <rect id="Rectangle-7-Copy-2" stroke="#FFFFFF" fill="#181A1C" x="539.805556" y="299.416667" width="54" height="54"></rect>
                <g id="Group-2" transform="translate(525.555556, 314.194444)">
                    <rect id="Rectangle-4-Copy" fill="#131416" x="0" y="0" width="24.4444444" height="24.4444444"></rect>
                    <text id="=" font-family="Helvetica" font-size="12.2222222" font-weight="normal" fill="#FFFFFF">
                        <tspan x="9" y="15.3333333">=</tspan>
                    </text>
                </g>
                <text id="$-20m" font-family="Roboto-Regular, Roboto" font-size="21.3888889" font-weight="normal" fill="#FFFFFF">
                    <tspan x="508.468764" y="109.611111">$ 20m</tspan>
                </text>
                <text id="Pro-rata" font-family="Roboto-Regular, Roboto" font-size="12.2222222" font-weight="normal" fill="#8A8B91">
                    <tspan x="481.25" y="267.138889">Pro-rata</tspan>
                </text>
                <text id="25%-×-20m" font-family="Roboto-Regular, Roboto" font-size="12.2222222" font-weight="normal" fill="#8A8B91">
                    <tspan x="435.944444" y="379.527778">25% × 20m</tspan>
                </text>
                <text id="$-20m---5m" font-family="Roboto-Regular, Roboto" font-size="12.2222222" font-weight="normal" fill="#8A8B91">
                    <tspan x="502.638889" y="548.25">$ 20m - 5m</tspan>
                </text>
                <text id="LiqPref" font-family="Roboto-Regular, Roboto" font-size="12.2222222" font-weight="normal" fill="#8A8B91">
                    <tspan x="550" y="267.138889">LiqPref</tspan>
                </text>
                <text id="5-m" font-family="Roboto-Regular, Roboto" font-size="15.2777778" font-weight="normal" line-spacing="15.2777778" fill="#FFFFFF">
                    <tspan x="501.834296" y="326.666667">5</tspan>
                    <tspan x="499.458333" y="341.944444">m</tspan>
                </text>
                <text id="$-15m" font-family="Roboto-Regular, Roboto" font-size="21.3888889" font-weight="normal" line-spacing="15.2777778" fill="#FFFFFF">
                    <tspan x="508.805556" y="516">$ 15m</tspan>
                </text>
                <text id="5-m" font-family="Roboto-Regular, Roboto" font-size="15.2777778" font-weight="normal" line-spacing="15.2777778" fill="#FFFFFF">
                    <tspan x="564.473185" y="326.666667">5</tspan>
                    <tspan x="562.097222" y="341.944444">m</tspan>
                </text>
                <rect id="Rectangle-10" fill="#ECEBE6" opacity="0.100000001" x="505.694444" y="280.583333" width="62.6388889" height="3.05555556"></rect>
                <g id="check" transform="translate(559.166667, 242.388889)">
                    <mask id="mask-18" fill="white">
                        <use xlink:href="#path-17"></use>
                    </mask>
                    <use id="Shape" fill="#000000" fill-rule="nonzero" xlink:href="#path-17"></use>
                    <g id="COLOR/-black" mask="url(#mask-18)" fill="#FFFFFF">
                        <g transform="translate(-1.527778, -4.583333)" id="Rectangle">
                            <rect x="0" y="0" width="18.3333333" height="18.3333333"></rect>
                        </g>
                    </g>
                </g>
                <g id="check" transform="translate(498.055556, 242.388889)">
                    <mask id="mask-20" fill="white">
                        <use xlink:href="#path-19"></use>
                    </mask>
                    <use id="Shape" fill="#000000" fill-rule="nonzero" xlink:href="#path-19"></use>
                    <g id="COLOR/-black" mask="url(#mask-20)" fill="#FFFFFF">
                        <g transform="translate(-1.527778, -4.583333)" id="Rectangle">
                            <rect x="0" y="0" width="18.3333333" height="18.3333333"></rect>
                        </g>
                    </g>
                </g>
                <g id="Group-4" transform="translate(0.000000, 178.222222)">
                    <rect id="Rectangle-7" stroke="#FFFFFF" fill="#181A1C" x="0.5" y="0.5" width="765.944444" height="47.8888889" rx="23.9444444"></rect>
                    <text id="Investor-proceeds" font-family="Roboto-Regular, Roboto" font-size="15.2777778" font-weight="normal" fill="#FFFFFF">
                        <tspan x="323.35178" y="29">Investor proceeds</tspan>
                    </text>
                </g>
                <g id="Group-3" transform="translate(0.000000, 393.638889)">
                    <rect id="Rectangle-7-Copy-3" stroke="#FFFFFF" fill="#181A1C" x="0.5" y="0.5" width="765.944444" height="47.8888889" rx="23.9444444"></rect>
                    <text id="Founder-proceeds" font-family="Roboto-Regular, Roboto" font-size="15.2777778" font-weight="normal" fill="#FFFFFF">
                        <tspan x="322.355699" y="30">Founder proceeds</tspan>
                    </text>
                </g>
            </g>
        </g>
    </g>
</svg>